<?xml version="1.0" encoding="UTF-8"?>
<svg id="Layer_1" data-name="Layer 1" xmlns="http://www.w3.org/2000/svg" viewBox="0 0 381.74 283.36">
  <defs>
    <style>
      .cls-1 {
        stroke: #91624e;
        stroke-miterlimit: 10;
        stroke-width: .5px;
      }

      .cls-1, .cls-2 {
        fill: #91624e;
      }
    </style>
  </defs>
  <g>
    <path class="cls-2" d="M58.98.21c1.11,0,2.01.35,2.7,1.04.69.69,1.04,1.52,1.04,2.49s-.35,1.84-1.04,2.6c-.69.76-1.59,1.14-2.7,1.14-14.95,0-27.28,9.83-36.97,29.49-9.28,18.69-14.19,41.4-14.75,68.12v4.15c0,25.34,4.15,46.66,12.46,63.97,9.41,19.66,22.5,29.49,39.25,29.49,1.11,0,2.01.35,2.7,1.04.69.69,1.04,1.56,1.04,2.6s-.35,1.9-1.04,2.6-1.59,1.04-2.7,1.04c-10.11,0-19.04-3.01-26.79-9.04-7.76-6.02-14.12-14.23-19.11-24.61C4.36,158.05,0,135.76,0,109.45v-4.36c.55-27.83,5.68-51.58,15.37-71.24,5.12-10.38,11.39-18.59,18.8-24.61C41.57,3.22,49.85.21,58.98.21Z"/>
    <path class="cls-2" d="M148.08,0v.21c2.08,0,3.25.97,3.53,2.91,11.77,63.42,23.75,130.99,35.93,202.71v.83c0,.97-.35,1.8-1.04,2.49s-1.53,1.04-2.49,1.04c-2.08,0-3.32-1.04-3.74-3.12-6.93-41.26-14.2-83.08-21.81-125.45h-20.35l-22.22,125.45c-.42,2.08-1.59,3.12-3.53,3.12-1.11,0-2.01-.34-2.7-1.04-.69-.69-1.04-1.52-1.04-2.49v-.83L144.55,3.12c.28-1.94,1.45-2.98,3.53-3.12ZM148.08,24.3l-8.72,50.05h17.86c-3.19-17.72-6.23-34.41-9.14-50.05Z"/>
    <path class="cls-2" d="M217.04.83h61.06c.97,0,1.83.35,2.6,1.04.76.69,1.14,1.56,1.14,2.6s-.38,1.9-1.14,2.6c-.76.69-1.63,1.04-2.6,1.04h-26.79v198.35c0,.97-.35,1.8-1.04,2.49s-1.56,1.04-2.6,1.04-1.91-.34-2.6-1.04c-.7-.69-1.04-1.52-1.04-2.49V8.1h-27c-1.11,0-2.01-.34-2.7-1.04-.69-.69-1.04-1.56-1.04-2.6s.34-1.9,1.04-2.6,1.59-1.04,2.7-1.04Z"/>
    <path class="cls-2" d="M331.48.83h46.73c.97,0,1.8.35,2.49,1.04.69.69,1.04,1.59,1.04,2.7v1.04l-57.53,195.65h51.92c.97,0,1.8.35,2.49,1.04.69.69,1.04,1.56,1.04,2.6s-.35,1.91-1.04,2.6-1.53,1.04-2.49,1.04h-56.91c-.97,0-1.8-.34-2.49-1.04-.69-.69-1.04-1.52-1.04-2.49,0-.42.07-.76.21-1.04L373.43,8.1h-42.16c-.97,0-1.8-.34-2.49-1.04-.69-.69-1.04-1.56-1.04-2.6s.34-1.9,1.04-2.6c.69-.69,1.52-1.04,2.49-1.04h.21Z"/>
  </g>
  <g>
    <path class="cls-1" d="M62.08,277.29c-1.6,0-2.85-.31-3.76-.94-.91-.63-1.55-1.51-1.92-2.64-.37-1.13-.55-2.42-.55-3.88v-10.08c0-1.48.19-2.76.58-3.85s1.04-1.94,1.95-2.54c.91-.6,2.15-.9,3.71-.9s2.82.3,3.74.9c.91.6,1.55,1.45,1.93,2.54s.57,2.38.57,3.85v10.11c0,1.46-.19,2.75-.56,3.87s-1,2-1.9,2.62-2.16.94-3.78.94ZM62.08,275.46c1.08,0,1.9-.21,2.46-.65.56-.43.95-1.03,1.16-1.8s.31-1.67.31-2.69v-11.01c0-1.02-.1-1.91-.31-2.67-.21-.76-.6-1.34-1.16-1.75s-1.38-.62-2.46-.62-1.88.21-2.44.62-.96,1-1.17,1.75c-.21.76-.31,1.65-.31,2.67v11.01c0,1.02.1,1.92.31,2.69s.6,1.37,1.17,1.8c.57.43,1.38.65,2.44.65Z"/>
    <path class="cls-1" d="M101.74,277.29c-1.64,0-2.91-.34-3.79-1.02-.89-.68-1.51-1.59-1.85-2.75-.34-1.15-.51-2.42-.51-3.83v-9.66c0-1.5.17-2.82.52-3.96.35-1.14.98-2.03,1.88-2.67.9-.64,2.15-.96,3.75-.96,1.46,0,2.6.28,3.44.84.83.56,1.42,1.36,1.79,2.39.36,1.03.54,2.25.54,3.67v1.47h-2.16v-1.41c0-1.06-.09-1.97-.25-2.73-.17-.76-.52-1.35-1.04-1.77-.52-.42-1.29-.63-2.31-.63-1.08,0-1.9.23-2.44.67-.55.45-.92,1.09-1.11,1.91-.19.82-.28,1.77-.28,2.85v10.35c0,1.2.11,2.2.34,3s.62,1.4,1.19,1.8c.56.4,1.33.6,2.31.6s1.79-.22,2.31-.66c.52-.44.86-1.05,1.04-1.85.17-.79.25-1.71.25-2.77v-1.59h2.16v1.44c0,1.42-.16,2.68-.49,3.78s-.91,1.96-1.74,2.56c-.83.61-2.01.92-3.52.92Z"/>
    <path class="cls-1" d="M133.75,276.99l5.13-24.3h2.4l5.16,24.3h-2.25l-1.2-6.51h-5.79l-1.23,6.51h-2.22ZM137.53,268.83h5.16l-2.61-13.11-2.55,13.11Z"/>
    <path class="cls-1" d="M173.35,276.99v-24.3h2.31v12.84l6.48-12.84h2.19l-5.01,10.44,6.09,13.86h-2.25l-5.34-12.15-2.16,3.96v8.19h-2.31Z"/>
    <path class="cls-1" d="M211.57,276.99v-24.3h5.22c1.1,0,2.03.14,2.79.42.76.28,1.37.69,1.83,1.23.46.54.79,1.18.99,1.93s.3,1.58.3,2.47c0,.78-.09,1.54-.27,2.27s-.49,1.35-.93,1.86c-.44.51-1.06.85-1.86,1.01.94.26,1.67.71,2.21,1.33.53.63.9,1.36,1.12,2.19.22.83.33,1.69.33,2.57,0,.96-.08,1.87-.25,2.71-.17.85-.47,1.59-.9,2.24-.43.64-1.02,1.14-1.75,1.51-.74.37-1.68.55-2.82.55h-6ZM213.85,263.16h3.3c.94,0,1.66-.18,2.16-.55s.85-.88,1.05-1.53c.2-.65.3-1.42.3-2.33,0-.98-.14-1.79-.41-2.43-.27-.64-.74-1.11-1.4-1.41-.66-.3-1.61-.45-2.85-.45h-2.16v8.7ZM213.85,275.28h3.27c1.58,0,2.63-.43,3.17-1.29.53-.86.79-2.2.79-4.02,0-.98-.12-1.85-.36-2.61-.24-.76-.65-1.35-1.21-1.79-.57-.43-1.35-.64-2.33-.64h-3.33v10.35Z"/>
    <path class="cls-1" d="M249.28,276.99l5.13-24.3h2.4l5.16,24.3h-2.25l-1.2-6.51h-5.79l-1.23,6.51h-2.22ZM253.06,268.83h5.16l-2.61-13.11-2.55,13.11Z"/>
    <path class="cls-1" d="M294.04,277.29c-1.32,0-2.42-.27-3.29-.82s-1.53-1.32-1.96-2.31c-.44-.99-.71-2.14-.81-3.46l2.01-.6c.1,1,.28,1.9.54,2.71.26.81.67,1.45,1.23,1.92s1.33.71,2.31.71c1.08,0,1.92-.28,2.52-.84.6-.56.9-1.45.9-2.67,0-1.06-.27-1.99-.79-2.78-.53-.79-1.26-1.62-2.18-2.47l-4.29-4.11c-.76-.74-1.32-1.5-1.68-2.29-.36-.79-.54-1.66-.54-2.59,0-1.68.5-2.97,1.5-3.87,1-.9,2.33-1.35,3.99-1.35.86,0,1.63.11,2.33.33.69.22,1.28.58,1.77,1.07s.88,1.12,1.16,1.9c.28.78.47,1.73.57,2.85l-1.95.51c-.08-1.02-.25-1.89-.5-2.62-.25-.73-.64-1.29-1.17-1.67-.53-.38-1.27-.57-2.21-.57-1,0-1.82.26-2.46.78-.64.52-.96,1.33-.96,2.43,0,.66.12,1.26.38,1.8s.69,1.12,1.33,1.74l4.29,4.05c.96.9,1.79,1.9,2.49,3,.7,1.1,1.05,2.34,1.05,3.72,0,1.22-.24,2.24-.71,3.06-.47.82-1.12,1.44-1.96,1.85-.84.41-1.81.61-2.91.61ZM293.65,283.11c-.22,0-.44-.01-.65-.04s-.42-.07-.64-.1v-1.14c.16.04.32.07.5.09.17.02.32.03.46.03.64,0,1.13-.09,1.47-.29.34-.19.51-.5.51-.94,0-.32-.08-.58-.25-.78-.17-.2-.42-.37-.75-.5-.33-.13-.74-.22-1.21-.29v-2.16h1.14v1.5c.9.04,1.58.26,2.04.66s.69.93.69,1.59c0,.52-.13.96-.39,1.32s-.64.62-1.14.79-1.09.25-1.77.25Z"/>
    <path class="cls-1" d="M326.74,276.99v-24.3h2.28v24.3h-2.28Z"/>
  </g>
</svg>